<svg width="253" height="50" viewBox="0 0 253 50" fill="none" xmlns="http://www.w3.org/2000/svg">
<g clip-path="url(#clip0_14430_591)">
<path d="M71.1111 0.0957031H8.88889C6.53141 0.0957031 4.27049 0.903035 2.6035 2.3401C0.936505 3.77716 0 5.72623 0 7.75854L0 24.9999H80V7.75854C80 5.72623 79.0635 3.77716 77.3965 2.3401C75.7295 0.903035 73.4686 0.0957031 71.1111 0.0957031Z" fill="#005BBB"/>
<path d="M80 42.2414C80 44.2737 79.0635 46.2228 77.3965 47.6598C75.7295 49.0969 73.4686 49.9042 71.1111 49.9042H8.88889C6.53141 49.9042 4.27049 49.0969 2.6035 47.6598C0.936505 46.2228 0 44.2737 0 42.2414V25H80V42.2414Z" fill="#FFD500"/>
</g>
<path d="M87.4964 20.1889V18.3537H88.3263C88.6727 18.3537 88.9583 18.2952 89.1832 18.1783C89.4126 18.0613 89.5993 17.9039 89.7433 17.706C89.8917 17.5036 90.0154 17.2831 90.1143 17.0447L90.31 16.5522L85.4521 6.18182H87.6651L91.2884 14.1705L94.5135 6.18182H96.6996L91.9226 17.6048C91.7202 18.0636 91.4863 18.4886 91.2209 18.88C90.96 19.2713 90.6114 19.5884 90.1751 19.8313C89.7388 20.0697 89.1607 20.1889 88.4411 20.1889H87.4964ZM97.7488 20V9.63636H99.7662V13.9815H100.738L104.159 9.63636H106.655L102.64 14.6765L106.702 20H104.199L101.075 15.8572H99.7662V20H97.7488ZM108.269 23.8864V9.63636H110.239V11.3164H110.408C110.525 11.1005 110.694 10.8509 110.914 10.5675C111.135 10.2841 111.44 10.0367 111.832 9.82528C112.223 9.60938 112.74 9.50142 113.384 9.50142C114.22 9.50142 114.967 9.71283 115.624 10.1357C116.28 10.5585 116.795 11.168 117.169 11.9641C117.547 12.7603 117.736 13.7184 117.736 14.8384C117.736 15.9585 117.549 16.9188 117.176 17.7195C116.802 18.5156 116.289 19.1296 115.637 19.5614C114.985 19.9888 114.241 20.2024 113.404 20.2024C112.774 20.2024 112.259 20.0967 111.859 19.8853C111.463 19.6739 111.153 19.4265 110.928 19.1431C110.703 18.8597 110.53 18.6078 110.408 18.3874H110.287V23.8864H108.269ZM110.246 14.8182C110.246 15.5469 110.352 16.1856 110.563 16.7344C110.775 17.2831 111.081 17.7127 111.481 18.0231C111.881 18.329 112.372 18.4819 112.952 18.4819C113.555 18.4819 114.058 18.3222 114.463 18.0028C114.868 17.679 115.174 17.2404 115.381 16.6871C115.592 16.1339 115.698 15.5109 115.698 14.8182C115.698 14.1345 115.594 13.5205 115.388 12.9762C115.185 12.4319 114.879 12.0024 114.47 11.6875C114.065 11.3726 113.559 11.2152 112.952 11.2152C112.367 11.2152 111.872 11.3659 111.467 11.6673C111.067 11.9686 110.763 12.3892 110.557 12.929C110.35 13.4687 110.246 14.0985 110.246 14.8182ZM123.012 20.2294C122.355 20.2294 121.761 20.108 121.231 19.8651C120.7 19.6177 120.279 19.2601 119.969 18.7923C119.663 18.3245 119.51 17.7509 119.51 17.0717C119.51 16.487 119.622 16.0057 119.847 15.6278C120.072 15.25 120.376 14.9509 120.758 14.7305C121.141 14.5101 121.568 14.3436 122.04 14.2312C122.513 14.1187 122.994 14.0333 123.484 13.9748C124.105 13.9028 124.609 13.8443 124.995 13.7994C125.382 13.7499 125.663 13.6712 125.839 13.5632C126.014 13.4553 126.102 13.2798 126.102 13.0369V12.9897C126.102 12.4004 125.936 11.9439 125.603 11.62C125.274 11.2962 124.784 11.1342 124.132 11.1342C123.453 11.1342 122.917 11.2849 122.526 11.5863C122.139 11.8832 121.872 12.2138 121.723 12.5781L119.827 12.1463C120.052 11.5166 120.38 11.0083 120.812 10.6214C121.249 10.2301 121.75 9.94673 122.317 9.77131C122.884 9.59138 123.48 9.50142 124.105 9.50142C124.519 9.50142 124.957 9.5509 125.421 9.64986C125.888 9.74432 126.325 9.91974 126.729 10.1761C127.139 10.4325 127.474 10.7991 127.735 11.2759C127.996 11.7482 128.126 12.3622 128.126 13.1179V20H126.156V18.5831H126.075C125.945 18.844 125.749 19.1004 125.488 19.3523C125.227 19.6042 124.892 19.8133 124.483 19.9798C124.073 20.1462 123.583 20.2294 123.012 20.2294ZM123.45 18.6101C124.008 18.6101 124.485 18.4999 124.881 18.2795C125.281 18.0591 125.585 17.7712 125.792 17.4158C126.003 17.056 126.109 16.6714 126.109 16.2621V14.9261C126.037 14.9981 125.897 15.0656 125.69 15.1286C125.488 15.187 125.256 15.2388 124.995 15.2837C124.735 15.3242 124.48 15.3625 124.233 15.3984C123.986 15.4299 123.779 15.4569 123.612 15.4794C123.221 15.5289 122.863 15.6121 122.54 15.729C122.22 15.846 121.964 16.0147 121.77 16.2351C121.581 16.451 121.487 16.7389 121.487 17.0987C121.487 17.598 121.671 17.9759 122.04 18.2322C122.409 18.4841 122.879 18.6101 123.45 18.6101ZM130.813 20V9.63636H132.831V20H130.813ZM129.848 8.0103C129.533 8.0103 129.257 7.89335 129.018 7.65945C128.78 7.42105 128.661 7.14666 128.661 6.83629C128.661 6.49893 128.78 6.2178 129.018 5.9929C129.257 5.76799 129.533 5.65554 129.848 5.65554C130.186 5.65554 130.467 5.76799 130.692 5.9929C130.921 6.2178 131.036 6.49893 131.036 6.83629C131.036 7.14666 130.921 7.42105 130.692 7.65945C130.467 7.89335 130.186 8.0103 129.848 8.0103ZM133.816 8.0103C133.501 8.0103 133.224 7.89335 132.986 7.65945C132.747 7.42105 132.628 7.14666 132.628 6.83629C132.628 6.49893 132.747 6.2178 132.986 5.9929C133.224 5.76799 133.501 5.65554 133.816 5.65554C134.153 5.65554 134.434 5.76799 134.659 5.9929C134.888 6.2178 135.003 6.49893 135.003 6.83629C135.003 7.14666 134.888 7.42105 134.659 7.65945C134.434 7.89335 134.153 8.0103 133.816 8.0103ZM142.568 13.9478V15.6953H136.955V13.9478H142.568ZM137.522 9.63636V20H135.545V9.63636H137.522ZM143.979 9.63636V20H142.008V9.63636H143.979ZM151.043 20.2092C150.04 20.2092 149.176 19.982 148.452 19.5277C147.732 19.0689 147.179 18.4369 146.792 17.6317C146.405 16.8266 146.212 15.9045 146.212 14.8654C146.212 13.8129 146.41 12.884 146.806 12.0788C147.201 11.2692 147.759 10.6372 148.479 10.1829C149.199 9.72857 150.047 9.50142 151.023 9.50142C151.81 9.50142 152.512 9.64761 153.128 9.93999C153.744 10.2279 154.241 10.6327 154.619 11.1545C155.001 11.6763 155.228 12.2857 155.3 12.983H153.337C153.229 12.4972 152.982 12.0788 152.595 11.728C152.212 11.3771 151.7 11.2017 151.056 11.2017C150.494 11.2017 150.002 11.3501 149.579 11.647C149.16 11.9394 148.834 12.3577 148.6 12.902C148.367 13.4418 148.25 14.0805 148.25 14.8182C148.25 15.5739 148.364 16.2261 148.594 16.7749C148.823 17.3236 149.147 17.7487 149.565 18.0501C149.988 18.3514 150.485 18.5021 151.056 18.5021C151.439 18.5021 151.785 18.4324 152.095 18.293C152.41 18.149 152.673 17.9444 152.885 17.679C153.101 17.4136 153.251 17.0942 153.337 16.7209H155.3C155.228 17.3911 155.01 17.9893 154.646 18.5156C154.282 19.0419 153.793 19.4557 153.182 19.7571C152.574 20.0585 151.862 20.2092 151.043 20.2092ZM158.976 13.1989H161.985C163.254 13.1989 164.23 13.5137 164.913 14.1435C165.597 14.7732 165.939 15.5851 165.939 16.5792C165.939 17.2269 165.786 17.8094 165.48 18.3267C165.174 18.844 164.727 19.2533 164.137 19.5547C163.548 19.8516 162.831 20 161.985 20H157.458V9.63636H159.435V18.2592H161.985C162.565 18.2592 163.042 18.1085 163.415 17.8072C163.789 17.5013 163.975 17.1122 163.975 16.6399C163.975 16.1406 163.789 15.7335 163.415 15.4187C163.042 15.0993 162.565 14.9396 161.985 14.9396H158.976V13.1989ZM168.201 20V9.63636H170.218V13.9815H171.19L174.611 9.63636H177.107L173.093 14.6765L177.154 20H174.651L171.527 15.8572H170.218V20H168.201ZM181.737 20.2294C181.081 20.2294 180.487 20.108 179.956 19.8651C179.425 19.6177 179.005 19.2601 178.694 18.7923C178.389 18.3245 178.236 17.7509 178.236 17.0717C178.236 16.487 178.348 16.0057 178.573 15.6278C178.798 15.25 179.102 14.9509 179.484 14.7305C179.866 14.5101 180.294 14.3436 180.766 14.2312C181.238 14.1187 181.719 14.0333 182.21 13.9748C182.83 13.9028 183.334 13.8443 183.721 13.7994C184.108 13.7499 184.389 13.6712 184.564 13.5632C184.74 13.4553 184.828 13.2798 184.828 13.0369V12.9897C184.828 12.4004 184.661 11.9439 184.328 11.62C184 11.2962 183.51 11.1342 182.857 11.1342C182.178 11.1342 181.643 11.2849 181.252 11.5863C180.865 11.8832 180.597 12.2138 180.449 12.5781L178.553 12.1463C178.778 11.5166 179.106 11.0083 179.538 10.6214C179.974 10.2301 180.476 9.94673 181.042 9.77131C181.609 9.59138 182.205 9.50142 182.83 9.50142C183.244 9.50142 183.683 9.5509 184.146 9.64986C184.614 9.74432 185.05 9.91974 185.455 10.1761C185.864 10.4325 186.2 10.7991 186.46 11.2759C186.721 11.7482 186.852 12.3622 186.852 13.1179V20H184.882V18.5831H184.801C184.67 18.844 184.474 19.1004 184.214 19.3523C183.953 19.6042 183.618 19.8133 183.208 19.9798C182.799 20.1462 182.309 20.2294 181.737 20.2294ZM182.176 18.6101C182.734 18.6101 183.211 18.4999 183.606 18.2795C184.007 18.0591 184.31 17.7712 184.517 17.4158C184.729 17.056 184.834 16.6714 184.834 16.2621V14.9261C184.762 14.9981 184.623 15.0656 184.416 15.1286C184.214 15.187 183.982 15.2388 183.721 15.2837C183.46 15.3242 183.206 15.3625 182.959 15.3984C182.711 15.4299 182.504 15.4569 182.338 15.4794C181.947 15.5289 181.589 15.6121 181.265 15.729C180.946 15.846 180.689 16.0147 180.496 16.2351C180.307 16.451 180.213 16.7389 180.213 17.0987C180.213 17.598 180.397 17.9759 180.766 18.2322C181.135 18.4841 181.605 18.6101 182.176 18.6101ZM194.567 9.63636H196.544V18.2525H200.127V9.63636H202.104V18.2525H205.686V9.63636H207.663V20H194.567V9.63636ZM210.357 20V9.63636H212.375V13.9815H213.346L216.767 9.63636H219.263L215.249 14.6765L219.311 20H216.807L213.684 15.8572H212.375V20H210.357ZM224.816 20.2092C223.845 20.2092 222.997 19.9865 222.273 19.5412C221.548 19.0959 220.986 18.4729 220.586 17.6722C220.186 16.8716 219.985 15.936 219.985 14.8654C219.985 13.7904 220.186 12.8503 220.586 12.0451C220.986 11.2399 221.548 10.6147 222.273 10.1694C222.997 9.72408 223.845 9.50142 224.816 9.50142C225.788 9.50142 226.636 9.72408 227.36 10.1694C228.084 10.6147 228.646 11.2399 229.047 12.0451C229.447 12.8503 229.647 13.7904 229.647 14.8654C229.647 15.936 229.447 16.8716 229.047 17.6722C228.646 18.4729 228.084 19.0959 227.36 19.5412C226.636 19.9865 225.788 20.2092 224.816 20.2092ZM224.823 18.5156C225.453 18.5156 225.975 18.3492 226.388 18.0163C226.802 17.6835 227.108 17.2404 227.306 16.6871C227.508 16.1339 227.61 15.5244 227.61 14.8587C227.61 14.1974 227.508 13.5902 227.306 13.0369C227.108 12.4792 226.802 12.0316 226.388 11.6942C225.975 11.3569 225.453 11.1882 224.823 11.1882C224.189 11.1882 223.663 11.3569 223.244 11.6942C222.83 12.0316 222.522 12.4792 222.32 13.0369C222.122 13.5902 222.023 14.1974 222.023 14.8587C222.023 15.5244 222.122 16.1339 222.32 16.6871C222.522 17.2404 222.83 17.6835 223.244 18.0163C223.663 18.3492 224.189 18.5156 224.823 18.5156ZM231.083 20L231.076 18.2525H231.447C231.735 18.2525 231.976 18.1918 232.169 18.0703C232.367 17.9444 232.529 17.733 232.655 17.4361C232.781 17.1392 232.877 16.7299 232.945 16.2081C233.012 15.6818 233.062 15.0206 233.093 14.2244L233.276 9.63636H240.509V20H238.532V11.3771H235.145L234.983 14.8991C234.942 15.7538 234.854 16.5005 234.719 17.1392C234.589 17.7779 234.398 18.311 234.146 18.7383C233.894 19.1611 233.57 19.4782 233.174 19.6896C232.779 19.8965 232.297 20 231.73 20H231.083ZM246.215 20.2294C245.558 20.2294 244.964 20.108 244.434 19.8651C243.903 19.6177 243.482 19.2601 243.172 18.7923C242.866 18.3245 242.713 17.7509 242.713 17.0717C242.713 16.487 242.826 16.0057 243.051 15.6278C243.275 15.25 243.579 14.9509 243.961 14.7305C244.344 14.5101 244.771 14.3436 245.243 14.2312C245.716 14.1187 246.197 14.0333 246.687 13.9748C247.308 13.9028 247.812 13.8443 248.199 13.7994C248.585 13.7499 248.867 13.6712 249.042 13.5632C249.217 13.4553 249.305 13.2798 249.305 13.0369V12.9897C249.305 12.4004 249.139 11.9439 248.806 11.62C248.477 11.2962 247.987 11.1342 247.335 11.1342C246.656 11.1342 246.12 11.2849 245.729 11.5863C245.342 11.8832 245.075 12.2138 244.926 12.5781L243.03 12.1463C243.255 11.5166 243.584 11.0083 244.015 10.6214C244.452 10.2301 244.953 9.94673 245.52 9.77131C246.087 9.59138 246.683 9.50142 247.308 9.50142C247.722 9.50142 248.16 9.5509 248.624 9.64986C249.091 9.74432 249.528 9.91974 249.933 10.1761C250.342 10.4325 250.677 10.7991 250.938 11.2759C251.199 11.7482 251.329 12.3622 251.329 13.1179V20H249.359V18.5831H249.278C249.148 18.844 248.952 19.1004 248.691 19.3523C248.43 19.6042 248.095 19.8133 247.686 19.9798C247.276 20.1462 246.786 20.2294 246.215 20.2294ZM246.653 18.6101C247.211 18.6101 247.688 18.4999 248.084 18.2795C248.484 18.0591 248.788 17.7712 248.995 17.4158C249.206 17.056 249.312 16.6714 249.312 16.2621V14.9261C249.24 14.9981 249.1 15.0656 248.894 15.1286C248.691 15.187 248.459 15.2388 248.199 15.2837C247.938 15.3242 247.684 15.3625 247.436 15.3984C247.189 15.4299 246.982 15.4569 246.815 15.4794C246.424 15.5289 246.066 15.6121 245.743 15.729C245.423 15.846 245.167 16.0147 244.973 16.2351C244.785 16.451 244.69 16.7389 244.69 17.0987C244.69 17.598 244.874 17.9759 245.243 18.2322C245.612 18.4841 246.082 18.6101 246.653 18.6101Z" fill="#005BBB"/>
<path d="M86.0391 40.3011V38.6143L92.0103 29.1818H93.3395V31.6648H92.4961L88.2251 38.4254V38.5334H96.4094V40.3011H86.0391ZM92.5906 43V39.7884L92.604 39.0192V29.1818H94.581V43H92.5906ZM103.572 43.2294C102.506 43.2249 101.595 42.9438 100.839 42.386C100.083 41.8282 99.5053 41.0163 99.1049 39.9503C98.7046 38.8842 98.5044 37.6 98.5044 36.0977C98.5044 34.5998 98.7046 33.3201 99.1049 32.2585C99.5098 31.197 100.09 30.3873 100.846 29.8295C101.606 29.2718 102.515 28.9929 103.572 28.9929C104.629 28.9929 105.535 29.274 106.291 29.8363C107.046 30.3941 107.624 31.2037 108.025 32.2653C108.43 33.3223 108.632 34.5998 108.632 36.0977C108.632 37.6045 108.432 38.891 108.031 39.957C107.631 41.0186 107.053 41.8305 106.297 42.3928C105.542 42.9505 104.633 43.2294 103.572 43.2294ZM103.572 41.4279C104.507 41.4279 105.238 40.9714 105.764 40.0582C106.295 39.1451 106.561 37.8249 106.561 36.0977C106.561 34.9506 106.439 33.9813 106.196 33.1896C105.958 32.3935 105.614 31.7907 105.164 31.3814C104.719 30.9676 104.188 30.7607 103.572 30.7607C102.64 30.7607 101.91 31.2195 101.379 32.1371C100.848 33.0547 100.58 34.3749 100.576 36.0977C100.576 37.2492 100.695 38.223 100.933 39.0192C101.176 39.8108 101.52 40.4113 101.966 40.8207C102.411 41.2255 102.946 41.4279 103.572 41.4279ZM117.159 36.2866V38.0341H111.032V36.2866H117.159ZM119.847 32.6364H121.824V41.2525H125.407V32.6364H127.384V41.2525H130.967V32.6364H132.944V43H119.847V32.6364ZM135.637 43V32.6364H137.655V36.9815H138.626L142.047 32.6364H144.544L140.529 37.6765L144.591 43H142.088L138.964 38.8572H137.655V43H135.637ZM150.097 43.2092C149.125 43.2092 148.277 42.9865 147.553 42.5412C146.829 42.0959 146.266 41.4729 145.866 40.6722C145.466 39.8716 145.266 38.936 145.266 37.8654C145.266 36.7904 145.466 35.8503 145.866 35.0451C146.266 34.2399 146.829 33.6147 147.553 33.1694C148.277 32.7241 149.125 32.5014 150.097 32.5014C151.068 32.5014 151.916 32.7241 152.64 33.1694C153.364 33.6147 153.927 34.2399 154.327 35.0451C154.727 35.8503 154.928 36.7904 154.928 37.8654C154.928 38.936 154.727 39.8716 154.327 40.6722C153.927 41.4729 153.364 42.0959 152.64 42.5412C151.916 42.9865 151.068 43.2092 150.097 43.2092ZM150.103 41.5156C150.733 41.5156 151.255 41.3492 151.669 41.0163C152.083 40.6835 152.388 40.2404 152.586 39.6871C152.789 39.1339 152.89 38.5244 152.89 37.8587C152.89 37.1974 152.789 36.5902 152.586 36.0369C152.388 35.4792 152.083 35.0316 151.669 34.6942C151.255 34.3569 150.733 34.1882 150.103 34.1882C149.469 34.1882 148.943 34.3569 148.525 34.6942C148.111 35.0316 147.803 35.4792 147.6 36.0369C147.402 36.5902 147.303 37.1974 147.303 37.8587C147.303 38.5244 147.402 39.1339 147.6 39.6871C147.803 40.2404 148.111 40.6835 148.525 41.0163C148.943 41.3492 149.469 41.5156 150.103 41.5156ZM156.363 43L156.356 41.2525H156.727C157.015 41.2525 157.256 41.1918 157.449 41.0703C157.647 40.9444 157.809 40.733 157.935 40.4361C158.061 40.1392 158.158 39.7299 158.225 39.2081C158.293 38.6818 158.342 38.0206 158.374 37.2244L158.556 32.6364H165.789V43H163.812V34.3771H160.425L160.263 37.8991C160.222 38.7538 160.135 39.5005 160 40.1392C159.869 40.7779 159.678 41.311 159.426 41.7383C159.174 42.1611 158.85 42.4782 158.455 42.6896C158.059 42.8965 157.578 43 157.011 43H156.363ZM171.495 43.2294C170.838 43.2294 170.245 43.108 169.714 42.8651C169.183 42.6177 168.763 42.2601 168.452 41.7923C168.146 41.3245 167.993 40.7509 167.993 40.0717C167.993 39.487 168.106 39.0057 168.331 38.6278C168.556 38.25 168.859 37.9509 169.242 37.7305C169.624 37.5101 170.051 37.3436 170.524 37.2312C170.996 37.1187 171.477 37.0333 171.968 36.9748C172.588 36.9028 173.092 36.8443 173.479 36.7994C173.866 36.7499 174.147 36.6712 174.322 36.5632C174.498 36.4553 174.585 36.2798 174.585 36.0369V35.9897C174.585 35.4004 174.419 34.9439 174.086 34.62C173.758 34.2962 173.267 34.1342 172.615 34.1342C171.936 34.1342 171.401 34.2849 171.009 34.5863C170.623 34.8832 170.355 35.2138 170.206 35.5781L168.311 35.1463C168.535 34.5166 168.864 34.0083 169.296 33.6214C169.732 33.2301 170.233 32.9467 170.8 32.7713C171.367 32.5914 171.963 32.5014 172.588 32.5014C173.002 32.5014 173.441 32.5509 173.904 32.6499C174.372 32.7443 174.808 32.9197 175.213 33.1761C175.622 33.4325 175.957 33.7991 176.218 34.2759C176.479 34.7482 176.61 35.3622 176.61 36.1179V43H174.639V41.5831H174.558C174.428 41.844 174.232 42.1004 173.971 42.3523C173.711 42.6042 173.375 42.8133 172.966 42.9798C172.557 43.1462 172.066 43.2294 171.495 43.2294ZM171.934 41.6101C172.492 41.6101 172.968 41.4999 173.364 41.2795C173.765 41.0591 174.068 40.7712 174.275 40.4158C174.486 40.056 174.592 39.6714 174.592 39.2621V37.9261C174.52 37.9981 174.381 38.0656 174.174 38.1286C173.971 38.187 173.74 38.2388 173.479 38.2837C173.218 38.3242 172.964 38.3625 172.716 38.3984C172.469 38.4299 172.262 38.4569 172.096 38.4794C171.704 38.5289 171.347 38.6121 171.023 38.729C170.704 38.846 170.447 39.0147 170.254 39.2351C170.065 39.451 169.97 39.7389 169.97 40.0987C169.97 40.598 170.155 40.9759 170.524 41.2322C170.892 41.4841 171.363 41.6101 171.934 41.6101Z" fill="#FFD500"/>
<defs>
<clipPath id="clip0_14430_591">
<rect width="80" height="50" fill="white"/>
</clipPath>
</defs>
</svg>
