<svg width="124" height="86" viewBox="0 0 124 86" fill="none" xmlns="http://www.w3.org/2000/svg">
<path d="M96.7805 54.1971C81.8144 54.1971 69.6819 42.0645 69.6819 27.0986C69.6819 12.1327 81.8144 2.28882e-05 96.7805 2.28882e-05C111.747 2.28882e-05 123.879 12.1327 123.879 27.0986L124 30.9698C124 60.9021 99.7352 85.1669 69.8029 85.1669V69.682C80.1432 69.682 89.8648 65.6552 97.1766 58.3434C98.584 56.9358 99.8685 55.4381 101.027 53.8649C99.6435 54.0827 98.2254 54.1971 96.7805 54.1971ZM27.0985 54.1971C12.1326 54.1971 0 42.0645 0 27.0986C0 26.5664 0.0153351 26.0378 0.0456009 25.5132C0.0531921 25.3816 0.0617294 25.2502 0.0711975 25.1191C1.03143 11.8187 11.5912 1.17806 24.8562 0.0914764C24.9944 0.0801544 25.1329 0.0698624 25.2717 0.0606232C25.4956 0.045723 25.7203 0.0335388 25.9456 0.0241089C26.3279 0.00810242 26.7123 2.28882e-05 27.0985 2.28882e-05C29.4953 2.28882e-05 31.8194 0.311195 34.0326 0.895332C45.6393 3.95872 54.1971 14.5294 54.1971 27.0986L54.3181 30.9698C54.3181 60.9021 30.0535 85.1669 0.120979 85.1669V69.682C10.461 69.682 20.1831 65.6552 27.4946 58.3434C28.9023 56.9358 30.1868 55.4381 31.3455 53.8649C29.9618 54.0827 28.5437 54.1971 27.0985 54.1971Z" fill="#082D69"/>
</svg>
