<svg width="189" height="40" viewBox="0 0 189 40" fill="none" xmlns="http://www.w3.org/2000/svg">
<g clip-path="url(#clip0_14433_598)">
<path d="M53.3333 0.0766602H6.66667C4.89856 0.0766602 3.20286 0.722525 1.95262 1.87217C0.702379 3.02182 0 4.58108 0 6.20693L0 20H60V6.20693C60 4.58108 59.2976 3.02182 58.0474 1.87217C56.7971 0.722525 55.1014 0.0766602 53.3333 0.0766602Z" fill="#005BBB"/>
<path d="M60 33.7931C60 35.4189 59.2976 36.9782 58.0474 38.1279C56.7971 39.2775 55.1014 39.9234 53.3333 39.9234H6.66667C4.89856 39.9234 3.20286 39.2775 1.95262 38.1279C0.702379 36.9782 0 35.4189 0 33.7931V20H60V33.7931Z" fill="#FFD500"/>
</g>
<path d="M66.8395 16.1392V14.7869H67.451C67.7062 14.7869 67.9167 14.7438 68.0824 14.6577C68.2514 14.5715 68.389 14.4555 68.495 14.3097C68.6044 14.1605 68.6955 13.9981 68.7685 13.8224L68.9126 13.4595L65.3331 5.81818H66.9638L69.6335 11.7045L72.0099 5.81818H73.6207L70.1009 14.2351C69.9517 14.5732 69.7794 14.8864 69.5838 15.1747C69.3916 15.4631 69.1347 15.6967 68.8132 15.8757C68.4917 16.0514 68.0658 16.1392 67.5355 16.1392H66.8395ZM74.3938 16V8.36364H75.8803V11.5653H76.5962L79.1168 8.36364H80.9563L77.9982 12.0774L80.9911 16H79.1467L76.8448 12.9474H75.8803V16H74.3938ZM82.1458 18.8636V8.36364H83.5975V9.60156H83.7218C83.8079 9.44247 83.9322 9.25852 84.0946 9.04972C84.257 8.84091 84.4824 8.65862 84.7708 8.50284C85.0591 8.34375 85.4403 8.2642 85.9142 8.2642C86.5307 8.2642 87.0809 8.41998 87.5648 8.73153C88.0487 9.04309 88.4282 9.49219 88.7033 10.0788C88.9817 10.6655 89.1209 11.3714 89.1209 12.1967C89.1209 13.022 88.9834 13.7296 88.7083 14.3196C88.4332 14.9062 88.0553 15.3587 87.5748 15.6768C87.0942 15.9917 86.5456 16.1491 85.9292 16.1491C85.4651 16.1491 85.0856 16.0713 84.7907 15.9155C84.499 15.7597 84.2703 15.5774 84.1046 15.3686C83.9389 15.1598 83.8113 14.9742 83.7218 14.8118H83.6323V18.8636H82.1458ZM83.6025 12.1818C83.6025 12.7187 83.6803 13.1894 83.8361 13.5938C83.9919 13.9981 84.2173 14.3146 84.5123 14.5433C84.8072 14.7687 85.1685 14.8814 85.5961 14.8814C86.0402 14.8814 86.4114 14.7637 86.7097 14.5284C87.008 14.2898 87.2334 13.9666 87.3858 13.5589C87.5416 13.1513 87.6195 12.6922 87.6195 12.1818C87.6195 11.678 87.5433 11.2256 87.3908 10.8246C87.2417 10.4235 87.0163 10.107 86.7147 9.875C86.4164 9.64299 86.0435 9.52699 85.5961 9.52699C85.1652 9.52699 84.8006 9.63802 84.5023 9.86009C84.2073 10.0821 83.9836 10.392 83.8311 10.7898C83.6787 11.1875 83.6025 11.6515 83.6025 12.1818ZM93.0087 16.169C92.5248 16.169 92.0873 16.0795 91.6962 15.9006C91.3051 15.7183 90.9952 15.4548 90.7665 15.1101C90.5411 14.7654 90.4284 14.3428 90.4284 13.8423C90.4284 13.4115 90.5113 13.0568 90.677 12.7784C90.8427 12.5 91.0665 12.2796 91.3482 12.1172C91.6299 11.9548 91.9448 11.8321 92.2928 11.7493C92.6408 11.6664 92.9954 11.6035 93.3567 11.5604C93.8141 11.5073 94.1853 11.4643 94.4703 11.4311C94.7554 11.3946 94.9625 11.3366 95.0918 11.2571C95.2211 11.1776 95.2857 11.0483 95.2857 10.8693V10.8345C95.2857 10.4003 95.1631 10.0639 94.9178 9.82528C94.6758 9.58665 94.3146 9.46733 93.834 9.46733C93.3335 9.46733 92.9391 9.57836 92.6507 9.80043C92.3657 10.0192 92.1685 10.2628 92.0591 10.5312L90.6621 10.2131C90.8278 9.74905 91.0698 9.37453 91.388 9.08949C91.7095 8.80114 92.079 8.59233 92.4966 8.46307C92.9142 8.33049 93.3534 8.2642 93.8141 8.2642C94.119 8.2642 94.4422 8.30066 94.7836 8.37358C95.1283 8.44318 95.4498 8.57244 95.748 8.76136C96.0497 8.95028 96.2966 9.22041 96.4888 9.57173C96.681 9.91974 96.7772 10.3722 96.7772 10.929V16H95.3255V14.956H95.2658C95.1697 15.1482 95.0255 15.3371 94.8333 15.5227C94.641 15.7083 94.3941 15.8625 94.0925 15.9851C93.7909 16.1077 93.4296 16.169 93.0087 16.169ZM93.3319 14.9759C93.7428 14.9759 94.0942 14.8946 94.3858 14.7322C94.6808 14.5698 94.9045 14.3577 95.057 14.0959C95.2128 13.8307 95.2907 13.5473 95.2907 13.2457V12.2614C95.2376 12.3144 95.1349 12.3641 94.9824 12.4105C94.8333 12.4536 94.6626 12.4917 94.4703 12.5249C94.2781 12.5547 94.0909 12.5829 93.9086 12.6094C93.7263 12.6326 93.5738 12.6525 93.4512 12.669C93.1628 12.7055 92.8993 12.7668 92.6607 12.853C92.4254 12.9392 92.2364 13.0634 92.0939 13.2259C91.9547 13.3849 91.8851 13.5971 91.8851 13.8622C91.8851 14.2301 92.021 14.5085 92.2928 14.6974C92.5646 14.883 92.9109 14.9759 93.3319 14.9759ZM98.7571 16V8.36364H100.244V16H98.7571ZM98.0462 7.16548C97.8142 7.16548 97.6103 7.07931 97.4347 6.90696C97.259 6.7313 97.1712 6.52912 97.1712 6.30043C97.1712 6.05185 97.259 5.8447 97.4347 5.67898C97.6103 5.51326 97.8142 5.4304 98.0462 5.4304C98.2947 5.4304 98.5019 5.51326 98.6676 5.67898C98.8366 5.8447 98.9212 6.05185 98.9212 6.30043C98.9212 6.52912 98.8366 6.7313 98.6676 6.90696C98.5019 7.07931 98.2947 7.16548 98.0462 7.16548ZM100.969 7.16548C100.737 7.16548 100.534 7.07931 100.358 6.90696C100.182 6.7313 100.094 6.52912 100.094 6.30043C100.094 6.05185 100.182 5.8447 100.358 5.67898C100.534 5.51326 100.737 5.4304 100.969 5.4304C101.218 5.4304 101.425 5.51326 101.591 5.67898C101.76 5.8447 101.844 6.05185 101.844 6.30043C101.844 6.52912 101.76 6.7313 101.591 6.90696C101.425 7.07931 101.218 7.16548 100.969 7.16548ZM107.419 11.5405V12.8281H103.282V11.5405H107.419ZM103.7 8.36364V16H102.243V8.36364H103.7ZM108.458 8.36364V16H107.006V8.36364H108.458ZM113.663 16.1541C112.924 16.1541 112.288 15.9867 111.754 15.652C111.224 15.3139 110.816 14.8482 110.531 14.255C110.246 13.6617 110.104 12.9822 110.104 12.2166C110.104 11.4411 110.249 10.7566 110.541 10.1634C110.833 9.56676 111.244 9.10109 111.774 8.76633C112.304 8.43158 112.929 8.2642 113.648 8.2642C114.228 8.2642 114.745 8.37192 115.199 8.58736C115.653 8.79948 116.02 9.09777 116.298 9.48224C116.58 9.86671 116.747 10.3158 116.8 10.8295H115.354C115.274 10.4716 115.092 10.1634 114.807 9.90483C114.525 9.64631 114.147 9.51705 113.673 9.51705C113.259 9.51705 112.896 9.62642 112.584 9.84517C112.276 10.0606 112.036 10.3688 111.863 10.7699C111.691 11.1676 111.605 11.6383 111.605 12.1818C111.605 12.7386 111.689 13.2192 111.858 13.6236C112.028 14.0279 112.266 14.3411 112.574 14.5632C112.886 14.7853 113.252 14.8963 113.673 14.8963C113.955 14.8963 114.21 14.8449 114.439 14.7422C114.671 14.6361 114.865 14.4853 115.02 14.2898C115.18 14.0942 115.291 13.8589 115.354 13.5838H116.8C116.747 14.0777 116.586 14.5185 116.318 14.9062C116.05 15.294 115.69 15.599 115.239 15.821C114.792 16.0431 114.266 16.1541 113.663 16.1541ZM119.509 10.9886H121.726C122.661 10.9886 123.38 11.2206 123.884 11.6847C124.387 12.1487 124.639 12.7469 124.639 13.4794C124.639 13.9567 124.527 14.3859 124.301 14.767C124.076 15.1482 123.746 15.4498 123.312 15.6719C122.878 15.8906 122.349 16 121.726 16H118.39V8.36364H119.847V14.7173H121.726C122.153 14.7173 122.505 14.6063 122.78 14.3842C123.055 14.1589 123.192 13.8722 123.192 13.5241C123.192 13.1562 123.055 12.8563 122.78 12.6243C122.505 12.389 122.153 12.2713 121.726 12.2713H119.509V10.9886ZM126.306 16V8.36364H127.792V11.5653H128.508L131.029 8.36364H132.868L129.91 12.0774L132.903 16H131.059L128.757 12.9474H127.792V16H126.306ZM136.28 16.169C135.796 16.169 135.359 16.0795 134.968 15.9006C134.577 15.7183 134.267 15.4548 134.038 15.1101C133.813 14.7654 133.7 14.3428 133.7 13.8423C133.7 13.4115 133.783 13.0568 133.949 12.7784C134.114 12.5 134.338 12.2796 134.62 12.1172C134.901 11.9548 135.216 11.8321 135.564 11.7493C135.912 11.6664 136.267 11.6035 136.628 11.5604C137.086 11.5073 137.457 11.4643 137.742 11.4311C138.027 11.3946 138.234 11.3366 138.363 11.2571C138.493 11.1776 138.557 11.0483 138.557 10.8693V10.8345C138.557 10.4003 138.435 10.0639 138.189 9.82528C137.947 9.58665 137.586 9.46733 137.105 9.46733C136.605 9.46733 136.211 9.57836 135.922 9.80043C135.637 10.0192 135.44 10.2628 135.331 10.5312L133.934 10.2131C134.099 9.74905 134.341 9.37453 134.659 9.08949C134.981 8.80114 135.35 8.59233 135.768 8.46307C136.186 8.33049 136.625 8.2642 137.086 8.2642C137.391 8.2642 137.714 8.30066 138.055 8.37358C138.4 8.44318 138.721 8.57244 139.02 8.76136C139.321 8.95028 139.568 9.22041 139.76 9.57173C139.953 9.91974 140.049 10.3722 140.049 10.929V16H138.597V14.956H138.537C138.441 15.1482 138.297 15.3371 138.105 15.5227C137.913 15.7083 137.666 15.8625 137.364 15.9851C137.062 16.1077 136.701 16.169 136.28 16.169ZM136.603 14.9759C137.014 14.9759 137.366 14.8946 137.657 14.7322C137.952 14.5698 138.176 14.3577 138.328 14.0959C138.484 13.8307 138.562 13.5473 138.562 13.2457V12.2614C138.509 12.3144 138.406 12.3641 138.254 12.4105C138.105 12.4536 137.934 12.4917 137.742 12.5249C137.55 12.5547 137.362 12.5829 137.18 12.6094C136.998 12.6326 136.845 12.6525 136.723 12.669C136.434 12.7055 136.171 12.7668 135.932 12.853C135.697 12.9392 135.508 13.0634 135.365 13.2259C135.226 13.3849 135.157 13.5971 135.157 13.8622C135.157 14.2301 135.292 14.5085 135.564 14.6974C135.836 14.883 136.182 14.9759 136.603 14.9759ZM145.734 8.36364H147.19V14.7124H149.83V8.36364H151.287V14.7124H153.927V8.36364H155.384V16H145.734V8.36364ZM157.368 16V8.36364H158.855V11.5653H159.571L162.091 8.36364H163.931L160.973 12.0774L163.966 16H162.121L159.819 12.9474H158.855V16H157.368ZM168.023 16.1541C167.307 16.1541 166.682 15.9901 166.148 15.6619C165.615 15.3338 165.2 14.8748 164.905 14.2848C164.61 13.6948 164.463 13.0054 164.463 12.2166C164.463 11.4245 164.61 10.7318 164.905 10.1385C165.2 9.54522 165.615 9.08452 166.148 8.75639C166.682 8.42827 167.307 8.2642 168.023 8.2642C168.738 8.2642 169.363 8.42827 169.897 8.75639C170.43 9.08452 170.845 9.54522 171.14 10.1385C171.435 10.7318 171.582 11.4245 171.582 12.2166C171.582 13.0054 171.435 13.6948 171.14 14.2848C170.845 14.8748 170.43 15.3338 169.897 15.6619C169.363 15.9901 168.738 16.1541 168.023 16.1541ZM168.028 14.9062C168.492 14.9062 168.876 14.7836 169.181 14.5384C169.486 14.2931 169.711 13.9666 169.857 13.5589C170.006 13.1513 170.081 12.7022 170.081 12.2116C170.081 11.7244 170.006 11.277 169.857 10.8693C169.711 10.4583 169.486 10.1286 169.181 9.87997C168.876 9.63139 168.492 9.5071 168.028 9.5071C167.56 9.5071 167.172 9.63139 166.864 9.87997C166.559 10.1286 166.332 10.4583 166.183 10.8693C166.037 11.277 165.964 11.7244 165.964 12.2116C165.964 12.7022 166.037 13.1513 166.183 13.5589C166.332 13.9666 166.559 14.2931 166.864 14.5384C167.172 14.7836 167.56 14.9062 168.028 14.9062ZM172.64 16L172.635 14.7124H172.908C173.121 14.7124 173.298 14.6676 173.44 14.5781C173.586 14.4853 173.705 14.3295 173.798 14.1108C173.891 13.892 173.962 13.5904 174.012 13.206C174.062 12.8182 174.098 12.331 174.121 11.7443L174.256 8.36364H179.585V16H178.129V9.64631H175.633L175.513 12.2415C175.484 12.8712 175.419 13.4214 175.32 13.892C175.223 14.3627 175.083 14.7554 174.897 15.0703C174.711 15.3819 174.473 15.6155 174.181 15.7713C173.889 15.9238 173.535 16 173.117 16H172.64ZM183.79 16.169C183.306 16.169 182.869 16.0795 182.477 15.9006C182.086 15.7183 181.776 15.4548 181.548 15.1101C181.322 14.7654 181.21 14.3428 181.21 13.8423C181.21 13.4115 181.293 13.0568 181.458 12.7784C181.624 12.5 181.848 12.2796 182.129 12.1172C182.411 11.9548 182.726 11.8321 183.074 11.7493C183.422 11.6664 183.777 11.6035 184.138 11.5604C184.595 11.5073 184.967 11.4643 185.252 11.4311C185.537 11.3946 185.744 11.3366 185.873 11.2571C186.002 11.1776 186.067 11.0483 186.067 10.8693V10.8345C186.067 10.4003 185.944 10.0639 185.699 9.82528C185.457 9.58665 185.096 9.46733 184.615 9.46733C184.115 9.46733 183.72 9.57836 183.432 9.80043C183.147 10.0192 182.95 10.2628 182.84 10.5312L181.443 10.2131C181.609 9.74905 181.851 9.37453 182.169 9.08949C182.491 8.80114 182.86 8.59233 183.278 8.46307C183.695 8.33049 184.135 8.2642 184.595 8.2642C184.9 8.2642 185.223 8.30066 185.565 8.37358C185.91 8.44318 186.231 8.57244 186.529 8.76136C186.831 8.95028 187.078 9.22041 187.27 9.57173C187.462 9.91974 187.558 10.3722 187.558 10.929V16H186.107V14.956H186.047C185.951 15.1482 185.807 15.3371 185.615 15.5227C185.422 15.7083 185.175 15.8625 184.874 15.9851C184.572 16.1077 184.211 16.169 183.79 16.169ZM184.113 14.9759C184.524 14.9759 184.875 14.8946 185.167 14.7322C185.462 14.5698 185.686 14.3577 185.838 14.0959C185.994 13.8307 186.072 13.5473 186.072 13.2457V12.2614C186.019 12.3144 185.916 12.3641 185.764 12.4105C185.615 12.4536 185.444 12.4917 185.252 12.5249C185.059 12.5547 184.872 12.5829 184.69 12.6094C184.508 12.6326 184.355 12.6525 184.232 12.669C183.944 12.7055 183.681 12.7668 183.442 12.853C183.207 12.9392 183.018 13.0634 182.875 13.2259C182.736 13.3849 182.666 13.5971 182.666 13.8622C182.666 14.2301 182.802 14.5085 183.074 14.6974C183.346 14.883 183.692 14.9759 184.113 14.9759Z" fill="#005BBB"/>
<path d="M69.8423 23.8182V34H68.3011V25.3594H68.2415L65.8054 26.9503V25.4787L68.3459 23.8182H69.8423ZM76.1413 34.169C75.3558 34.1657 74.6847 33.9586 74.1278 33.5476C73.571 33.1366 73.1451 32.5384 72.8501 31.7528C72.5552 30.9673 72.4077 30.0211 72.4077 28.9141C72.4077 27.8104 72.5552 26.8674 72.8501 26.0852C73.1484 25.303 73.576 24.7064 74.1328 24.2955C74.6929 23.8845 75.3625 23.679 76.1413 23.679C76.9202 23.679 77.5881 23.8861 78.1449 24.3004C78.7017 24.7114 79.1276 25.308 79.4226 26.0902C79.7209 26.8691 79.87 27.8104 79.87 28.9141C79.87 30.0244 79.7225 30.9723 79.4276 31.7578C79.1326 32.54 78.7067 33.1383 78.1499 33.5526C77.593 33.9635 76.9235 34.169 76.1413 34.169ZM76.1413 32.8416C76.8307 32.8416 77.3693 32.5052 77.7571 31.8324C78.1482 31.1596 78.3438 30.1868 78.3438 28.9141C78.3438 28.0689 78.2543 27.3546 78.0753 26.7713C77.8996 26.1847 77.6461 25.7405 77.3146 25.4389C76.9865 25.134 76.5954 24.9815 76.1413 24.9815C75.4553 24.9815 74.9167 25.3196 74.5256 25.9957C74.1345 26.6719 73.9373 27.6446 73.9339 28.9141C73.9339 29.7625 74.0218 30.4801 74.1974 31.0668C74.3764 31.6501 74.63 32.0926 74.9581 32.3942C75.2862 32.6925 75.6806 32.8416 76.1413 32.8416ZM85.4966 23.8182V34H83.9554V25.3594H83.8958L81.4597 26.9503V25.4787L84.0002 23.8182H85.4966ZM92.7701 29.0533V30.3409H88.2559V29.0533H92.7701ZM94.7512 26.3636H96.2079V32.7124H98.8478V26.3636H100.305V32.7124H102.944V26.3636H104.401V34H94.7512V26.3636ZM106.386 34V26.3636H107.873V29.5653H108.588L111.109 26.3636H112.949L109.99 30.0774L112.983 34H111.139L108.837 30.9474H107.873V34H106.386ZM117.04 34.1541C116.324 34.1541 115.699 33.9901 115.166 33.6619C114.632 33.3338 114.218 32.8748 113.923 32.2848C113.628 31.6948 113.48 31.0054 113.48 30.2166C113.48 29.4245 113.628 28.7318 113.923 28.1385C114.218 27.5452 114.632 27.0845 115.166 26.7564C115.699 26.4283 116.324 26.2642 117.04 26.2642C117.756 26.2642 118.381 26.4283 118.914 26.7564C119.448 27.0845 119.862 27.5452 120.157 28.1385C120.452 28.7318 120.6 29.4245 120.6 30.2166C120.6 31.0054 120.452 31.6948 120.157 32.2848C119.862 32.8748 119.448 33.3338 118.914 33.6619C118.381 33.9901 117.756 34.1541 117.04 34.1541ZM117.045 32.9062C117.509 32.9062 117.894 32.7836 118.199 32.5384C118.503 32.2931 118.729 31.9666 118.875 31.5589C119.024 31.1513 119.098 30.7022 119.098 30.2116C119.098 29.7244 119.024 29.277 118.875 28.8693C118.729 28.4583 118.503 28.1286 118.199 27.88C117.894 27.6314 117.509 27.5071 117.045 27.5071C116.578 27.5071 116.19 27.6314 115.882 27.88C115.577 28.1286 115.35 28.4583 115.201 28.8693C115.055 29.277 114.982 29.7244 114.982 30.2116C114.982 30.7022 115.055 31.1513 115.201 31.5589C115.35 31.9666 115.577 32.2931 115.882 32.5384C116.19 32.7836 116.578 32.9062 117.045 32.9062ZM121.657 34L121.653 32.7124H121.926C122.138 32.7124 122.315 32.6676 122.458 32.5781C122.604 32.4853 122.723 32.3295 122.816 32.1108C122.909 31.892 122.98 31.5904 123.03 31.206C123.079 30.8182 123.116 30.331 123.139 29.7443L123.273 26.3636H128.603V34H127.146V27.6463H124.65L124.531 30.2415C124.501 30.8712 124.437 31.4214 124.337 31.892C124.241 32.3627 124.1 32.7554 123.915 33.0703C123.729 33.3819 123.49 33.6155 123.199 33.7713C122.907 33.9238 122.552 34 122.135 34H121.657ZM132.808 34.169C132.324 34.169 131.886 34.0795 131.495 33.9006C131.104 33.7183 130.794 33.4548 130.565 33.1101C130.34 32.7654 130.227 32.3428 130.227 31.8423C130.227 31.4115 130.31 31.0568 130.476 30.7784C130.642 30.5 130.865 30.2796 131.147 30.1172C131.429 29.9548 131.744 29.8321 132.092 29.7493C132.44 29.6664 132.794 29.6035 133.156 29.5604C133.613 29.5073 133.984 29.4643 134.269 29.4311C134.554 29.3946 134.761 29.3366 134.891 29.2571C135.02 29.1776 135.085 29.0483 135.085 28.8693V28.8345C135.085 28.4003 134.962 28.0639 134.717 27.8253C134.475 27.5866 134.113 27.4673 133.633 27.4673C133.132 27.4673 132.738 27.5784 132.45 27.8004C132.165 28.0192 131.967 28.2628 131.858 28.5312L130.461 28.2131C130.627 27.7491 130.869 27.3745 131.187 27.0895C131.508 26.8011 131.878 26.5923 132.295 26.4631C132.713 26.3305 133.152 26.2642 133.613 26.2642C133.918 26.2642 134.241 26.3007 134.582 26.3736C134.927 26.4432 135.249 26.5724 135.547 26.7614C135.848 26.9503 136.095 27.2204 136.288 27.5717C136.48 27.9197 136.576 28.3722 136.576 28.929V34H135.124V32.956H135.065C134.969 33.1482 134.824 33.3371 134.632 33.5227C134.44 33.7083 134.193 33.8625 133.891 33.9851C133.59 34.1077 133.228 34.169 132.808 34.169ZM133.131 32.9759C133.542 32.9759 133.893 32.8946 134.185 32.7322C134.48 32.5698 134.703 32.3577 134.856 32.0959C135.012 31.8307 135.089 31.5473 135.089 31.2457V30.2614C135.036 30.3144 134.934 30.3641 134.781 30.4105C134.632 30.4536 134.461 30.4917 134.269 30.5249C134.077 30.5547 133.89 30.5829 133.707 30.6094C133.525 30.6326 133.373 30.6525 133.25 30.669C132.962 30.7055 132.698 30.7668 132.46 30.853C132.224 30.9392 132.035 31.0634 131.893 31.2259C131.754 31.3849 131.684 31.5971 131.684 31.8622C131.684 32.2301 131.82 32.5085 132.092 32.6974C132.363 32.883 132.71 32.9759 133.131 32.9759Z" fill="#FFD500"/>
<defs>
<clipPath id="clip0_14433_598">
<rect width="60" height="40" fill="white"/>
</clipPath>
</defs>
</svg>
