<svg xmlns="http://www.w3.org/2000/svg" width="65" height="65" viewBox="0 0 65 65" fill="none">
  <path d="M16.5 27.0898V25.0898C16.5 22.8838 14.706 21.0898 12.5 21.0898C10.294 21.0898 8.5 22.8838 8.5 25.0898V27.0898C8.5 29.2958 10.294 31.0898 12.5 31.0898C14.706 31.0898 16.5 29.2958 16.5 27.0898ZM14.5 27.0898C14.5 28.1928 13.603 29.0898 12.5 29.0898C11.397 29.0898 10.5 28.1928 10.5 27.0898V25.0898C10.5 23.9868 11.397 23.0898 12.5 23.0898C13.603 23.0898 14.5 23.9868 14.5 25.0898V27.0898Z" fill="#005BBB"/>
  <path d="M58.5 31.0898H52.5H45.5C45.235 31.0898 44.98 31.1948 44.793 31.3828L42.5 33.6758L39.207 30.3828C38.816 29.9918 38.184 29.9918 37.793 30.3828L36.534 31.6418C34.904 29.7368 33.893 27.4258 33.599 24.9478C34.795 24.6628 35.88 23.9218 36.786 22.8328C36.607 23.2158 36.5 23.6388 36.5 24.0898C36.5 25.7438 37.846 27.0898 39.5 27.0898C41.154 27.0898 42.5 25.7438 42.5 24.0898H40.5C40.5 24.6408 40.051 25.0898 39.5 25.0898C38.949 25.0898 38.5 24.6408 38.5 24.0898C38.5 23.5388 38.949 23.0898 39.5 23.0898C41.706 23.0898 43.5 21.2958 43.5 19.0898C43.5 16.8838 41.706 15.0898 39.5 15.0898H39.469C39.487 14.7598 39.5 14.4278 39.5 14.0898C39.5 13.5378 39.052 13.0898 38.5 13.0898H26.5C25.948 13.0898 25.5 13.5378 25.5 14.0898C25.5 14.4278 25.513 14.7598 25.531 15.0898H25.5C23.294 15.0898 21.5 16.8838 21.5 19.0898C21.5 21.2958 23.294 23.0898 25.5 23.0898C26.051 23.0898 26.5 23.5388 26.5 24.0898C26.5 24.6408 26.051 25.0898 25.5 25.0898C24.949 25.0898 24.5 24.6408 24.5 24.0898H22.5C22.5 25.7438 23.846 27.0898 25.5 27.0898C27.154 27.0898 28.5 25.7438 28.5 24.0898C28.5 23.6388 28.393 23.2158 28.214 22.8318C29.12 23.9208 30.205 24.6618 31.401 24.9468C31.107 27.4248 30.096 29.7368 28.466 31.6408L27.207 30.3818C26.816 29.9908 26.184 29.9908 25.793 30.3818L22.5 33.6758L20.207 31.3828C20.02 31.1948 19.765 31.0898 19.5 31.0898H12.5H6.5C3.743 31.0898 1.5 33.3328 1.5 36.0898V42.0898C1.5 44.5038 3.221 46.5238 5.5 46.9888V57.2738C4.339 57.6878 3.5 58.7878 3.5 60.0898V62.0898C3.5 62.6428 3.948 63.0898 4.5 63.0898H10.5C11.052 63.0898 11.5 62.6428 11.5 62.0898V58.0898V49.0898H13.5V58.0898V62.0898C13.5 62.6428 13.948 63.0898 14.5 63.0898H20.5C21.052 63.0898 21.5 62.6428 21.5 62.0898V60.0898C21.5 58.7878 20.661 57.6878 19.5 57.2738V39.5038L21.793 41.7968C22.184 42.1878 22.816 42.1878 23.207 41.7968L30.207 34.7968C30.402 34.6018 30.5 34.3458 30.5 34.0898H34.5C34.5 34.3458 34.598 34.6018 34.793 34.7968L41.793 41.7968C42.184 42.1878 42.816 42.1878 43.207 41.7968L45.5 39.5038V57.2738C44.339 57.6878 43.5 58.7878 43.5 60.0898V62.0898C43.5 62.6428 43.948 63.0898 44.5 63.0898H50.5C51.052 63.0898 51.5 62.6428 51.5 62.0898V58.0898V49.0898H53.5V58.0898V62.0898C53.5 62.6428 53.948 63.0898 54.5 63.0898H60.5C61.052 63.0898 61.5 62.6428 61.5 62.0898V60.0898C61.5 58.7878 60.661 57.6878 59.5 57.2738V46.9888C61.779 46.5238 63.5 44.5048 63.5 42.0898V36.0898C63.5 33.3328 61.257 31.0898 58.5 31.0898ZM34.348 32.0898H30.653C31.417 31.0518 32.039 29.9308 32.501 28.7418C32.961 29.9308 33.583 31.0518 34.348 32.0898ZM39.5 17.0898C40.603 17.0898 41.5 17.9868 41.5 19.0898C41.5 20.1928 40.603 21.0898 39.5 21.0898C38.721 21.0898 38.017 21.3958 37.483 21.8838C38.31 20.5788 38.918 18.9368 39.24 17.0898H39.5ZM25.5 21.0898C24.397 21.0898 23.5 20.1928 23.5 19.0898C23.5 17.9868 24.397 17.0898 25.5 17.0898H25.761C26.083 18.9368 26.691 20.5788 27.518 21.8838C26.983 21.3958 26.279 21.0898 25.5 21.0898ZM27.532 15.0898H37.468C37.181 19.5188 35.023 23.0898 32.5 23.0898C29.977 23.0898 27.819 19.5188 27.532 15.0898ZM3.684 43.0898H5.5V44.9058C4.653 44.6038 3.986 43.9368 3.684 43.0898ZM9.5 57.0898H7.5V51.0898H9.5V57.0898ZM9.5 61.0898H5.5V60.0898C5.5 59.5378 5.949 59.0898 6.5 59.0898H9.5V61.0898ZM10.5 47.0898C9.948 47.0898 9.5 47.5368 9.5 48.0898V49.0898H7.5V45.0898H17.5V49.0898H15.5V48.0898C15.5 47.5368 15.052 47.0898 14.5 47.0898H10.5ZM15.5 57.0898V51.0898H17.5V57.0898H15.5ZM19.5 61.0898H15.5V59.0898H18.5C19.051 59.0898 19.5 59.5378 19.5 60.0898V61.0898ZM22.5 39.6758L19.207 36.3828C18.92 36.0958 18.49 36.0098 18.117 36.1658C17.744 36.3198 17.5 36.6858 17.5 37.0898V43.0898H7.5V37.0898H5.5V41.0898H3.5V36.0898C3.5 34.4358 4.846 33.0898 6.5 33.0898H19.086L21.793 35.7968C22.184 36.1878 22.816 36.1878 23.207 35.7968L26.5 32.5038L28.086 34.0898L22.5 39.6758ZM42.5 39.6758L36.914 34.0898L38.5 32.5038L41.793 35.7968C42.184 36.1878 42.816 36.1878 43.207 35.7968L45.914 33.0898H58.5C60.154 33.0898 61.5 34.4358 61.5 36.0898V41.0898H59.5V37.0898H57.5V43.0898H47.5V37.0898C47.5 36.6858 47.256 36.3198 46.883 36.1658C46.508 36.0098 46.079 36.0958 45.793 36.3828L42.5 39.6758ZM55.5 57.0898V51.0898H57.5V57.0898H55.5ZM49.5 57.0898H47.5V51.0898H49.5V57.0898ZM49.5 61.0898H45.5V60.0898C45.5 59.5378 45.949 59.0898 46.5 59.0898H49.5V61.0898ZM50.5 47.0898C49.948 47.0898 49.5 47.5368 49.5 48.0898V49.0898H47.5V45.0898H57.5V49.0898H55.5V48.0898C55.5 47.5368 55.052 47.0898 54.5 47.0898H50.5ZM59.5 61.0898H55.5V59.0898H58.5C59.051 59.0898 59.5 59.5378 59.5 60.0898V61.0898ZM59.5 44.9058V43.0898H61.316C61.014 43.9368 60.347 44.6038 59.5 44.9058Z" fill="#005BBB"/>
  <path d="M56.5 27.0898V25.0898C56.5 22.8838 54.706 21.0898 52.5 21.0898C50.294 21.0898 48.5 22.8838 48.5 25.0898V27.0898C48.5 29.2958 50.294 31.0898 52.5 31.0898C54.706 31.0898 56.5 29.2958 56.5 27.0898ZM54.5 27.0898C54.5 28.1928 53.603 29.0898 52.5 29.0898C51.397 29.0898 50.5 28.1928 50.5 27.0898V25.0898C50.5 23.9868 51.397 23.0898 52.5 23.0898C53.603 23.0898 54.5 23.9868 54.5 25.0898V27.0898Z" fill="#005BBB"/>
  <path d="M32.5 9.08984C15.41 9.08984 3.5 4.87384 3.5 1.08984H1.5C1.5 2.42684 2.186 3.63484 3.392 4.71484L1.512 16.9378C1.448 17.3548 1.653 17.7688 2.025 17.9698C2.174 18.0498 2.337 18.0898 2.5 18.0898C2.742 18.0898 2.981 18.0028 3.169 17.8328L13.022 8.96484C13.234 9.01784 13.442 9.07184 13.658 9.12184L15.513 20.2538C15.578 20.6428 15.866 20.9578 16.247 21.0568C16.332 21.0788 16.416 21.0898 16.5 21.0898C16.799 21.0898 17.088 20.9548 17.281 20.7148L25.2 10.8158C27.611 10.9968 30.067 11.0898 32.5 11.0898C34.933 11.0898 37.389 10.9968 39.8 10.8148L47.719 20.7138C47.912 20.9548 48.201 21.0898 48.5 21.0898C48.584 21.0898 48.668 21.0788 48.752 21.0578C49.134 20.9578 49.421 20.6438 49.486 20.2548L51.341 9.12284C51.557 9.07184 51.765 9.01784 51.977 8.96584L61.83 17.8338C62.019 18.0028 62.258 18.0898 62.5 18.0898C62.663 18.0898 62.826 18.0498 62.975 17.9698C63.347 17.7688 63.553 17.3558 63.488 16.9378L61.608 4.71484C62.814 3.63484 63.5 2.42684 63.5 1.08984H61.5C61.5 4.87384 49.59 9.08984 32.5 9.08984ZM3.915 14.4708L5.214 6.02384C6.703 6.90584 8.579 7.67684 10.733 8.33384L3.915 14.4708ZM17.118 17.7158L15.761 9.57184C17.982 10.0088 20.356 10.3548 22.808 10.6038L17.118 17.7158ZM47.882 17.7158L42.192 10.6038C44.644 10.3548 47.018 10.0088 49.239 9.57184L47.882 17.7158ZM61.085 14.4708L54.266 8.33384C56.42 7.67684 58.296 6.90584 59.785 6.02384L61.085 14.4708Z" fill="#005BBB"/>
</svg>