<svg width="75" height="80" viewBox="0 0 75 80" fill="none" xmlns="http://www.w3.org/2000/svg">
<path fill-rule="evenodd" clip-rule="evenodd" d="M72.8301 38.8086H71.6393V30.9007C71.6393 28.2203 70.67 25.7014 68.9088 23.809C67.1476 21.914 64.8065 20.871 62.3165 20.871H60.922V19.4847C63.7645 17.7089 65.6853 14.4059 65.6853 10.621C65.6853 4.9695 61.4115 0.371094 56.1588 0.371094C50.9061 0.371094 46.6323 4.9695 46.6323 10.621C46.6323 14.4046 48.5531 17.7089 51.3956 19.4847V20.871H50.0011C47.5112 20.871 45.17 21.914 43.4088 23.809C41.6476 25.7026 40.6783 28.2203 40.6783 30.9007V38.8086H39.934H38.2967H35.9151H28.7702H26.3886H25.1978C24.5405 38.8086 24.007 39.3813 24.007 40.0898V45.2148C24.007 45.9233 24.5405 46.496 25.1978 46.496H26.3886V54.1836C23.1055 54.1836 20.4345 57.0574 20.4345 60.5898C20.4345 62.4925 21.2252 64.185 22.453 65.3599C20.5882 66.2747 19.0413 67.8122 18.0529 69.7328C17.0646 67.8135 15.5177 66.276 13.6529 65.3599C14.8806 64.185 15.6713 62.4925 15.6713 60.5898C15.6713 57.0574 13.0003 54.1836 9.7173 54.1836C6.43421 54.1836 3.76322 57.0574 3.76322 60.5898C3.76322 62.4925 4.55392 64.185 5.78164 65.3599C2.48906 66.9755 0.190796 70.5426 0.190796 74.6836V78.5273C0.190796 79.2358 0.724276 79.8086 1.3816 79.8086H51.3956C52.0529 79.8086 52.5864 79.2358 52.5864 78.5273V77.246H70.4485C71.1058 77.246 71.6393 76.6733 71.6393 75.9648V46.496H72.8301C73.4874 46.496 74.0209 45.9233 74.0209 45.2148V40.0898C74.0209 39.3813 73.4874 38.8086 72.8301 38.8086ZM69.2577 30.9007V38.8086H66.8761V33.6836H64.4945V38.8086H57.3496V29.3504L60.3897 30.9852C60.5565 31.0762 60.7398 31.121 60.922 31.121C61.0768 31.121 61.2316 31.089 61.3781 31.0237C61.6973 30.8815 61.9426 30.597 62.0521 30.246L64.0848 23.686C65.2613 24.0178 66.3426 24.6712 67.2262 25.6219C68.5361 27.0313 69.2577 28.9058 69.2577 30.9007ZM51.991 23.4336L54.35 26.8173L52.091 28.0332L50.6668 23.4336H51.991ZM60.3266 23.4336H61.652L60.2278 28.0332L57.9688 26.8173L60.3266 23.4336ZM56.1588 2.93359C59.6598 2.93359 62.5749 5.65881 63.1822 9.23994C60.9268 8.9324 58.8393 7.84847 57.2067 6.09187L57.0031 5.8715C56.5565 5.38847 55.7635 5.38847 55.3169 5.8715L55.1145 6.09059C53.4807 7.84847 51.3932 8.9324 49.1378 9.23864C49.7427 5.65881 52.6578 2.93359 56.1588 2.93359ZM49.1033 11.8344C51.7207 11.5551 54.169 10.4161 56.1588 8.54547C58.1486 10.4148 60.5958 11.5551 63.2143 11.8344C62.6725 15.4988 59.7146 18.3086 56.1588 18.3086C52.6031 18.3086 49.6451 15.4988 49.1033 11.8344ZM56.1588 20.871C56.9828 20.871 57.7771 20.7468 58.5404 20.5341V21.7256L56.1588 25.1415L53.7772 21.7256V20.5341C54.5405 20.7468 55.3348 20.871 56.1588 20.871ZM43.0599 30.9007C43.0599 28.9058 43.7815 27.03 45.0926 25.6206C45.9762 24.6712 47.0575 24.0165 48.234 23.6847L50.2667 30.2447C50.3762 30.5957 50.6215 30.8802 50.9407 31.0224C51.086 31.089 51.2408 31.121 51.3956 31.121C51.5778 31.121 51.7611 31.0762 51.9279 30.9865L54.968 29.3504V38.8086H47.8231V33.6836H45.4415V38.8086H43.0599V30.9007ZM22.8162 60.5898C22.8162 58.4706 24.419 56.746 26.3886 56.746C28.3582 56.746 29.961 58.4706 29.961 60.5898C29.961 62.709 28.3582 64.4336 26.3886 64.4336C24.419 64.4336 22.8162 62.709 22.8162 60.5898ZM6.14484 60.5898C6.14484 58.4706 7.74767 56.746 9.7173 56.746C11.6869 56.746 13.2897 58.4706 13.2897 60.5898C13.2897 62.709 11.6869 64.4336 9.7173 64.4336C7.74767 64.4336 6.14484 62.709 6.14484 60.5898ZM2.57241 74.6836C2.57241 70.4439 5.77688 66.996 9.7173 66.996C13.6577 66.996 16.8621 70.4439 16.8621 74.6836V77.246H2.57241V74.6836ZM19.2437 74.6836C19.2437 70.4439 22.4482 66.996 26.3886 66.996C30.329 66.996 33.5334 70.4439 33.5334 74.6836V77.246H19.2437V74.6836ZM35.9151 77.246V74.6836C35.9151 70.4439 39.1195 66.996 43.0599 66.996C47.0003 66.996 50.2048 70.4439 50.2048 74.6836V77.246H35.9151ZM39.4875 60.5898C39.4875 58.4706 41.0903 56.746 43.0599 56.746C45.0295 56.746 46.6323 58.4706 46.6323 60.5898C46.6323 62.709 45.0295 64.4336 43.0599 64.4336C41.0903 64.4336 39.4875 62.709 39.4875 60.5898ZM69.2577 74.6836H52.5864C52.5864 70.5426 50.2881 66.9755 46.9955 65.3599C48.2233 64.185 49.014 62.4925 49.014 60.5898C49.014 57.0574 46.343 54.1836 43.0599 54.1836C39.7768 54.1836 37.1059 57.0574 37.1059 60.5898C37.1059 62.4925 37.8966 64.185 39.1243 65.3599C37.2595 66.2747 35.7126 67.8122 34.7242 69.7328C33.7359 67.8135 32.189 66.276 30.3242 65.3599C31.5519 64.185 32.3426 62.4925 32.3426 60.5898C32.3426 57.9696 30.8696 55.7185 28.7702 54.7268V46.496H69.2577V74.6836ZM71.6393 43.9336H26.3886V41.371H71.6393V43.9336Z" fill="#005BBB"/>
</svg>
