<svg xmlns="http://www.w3.org/2000/svg" width="73" height="74" viewBox="0 0 73 74" fill="none">
  <path d="M70.7188 38.2304H67.2969V37.0898C67.2969 36.4602 66.7859 35.9492 66.1562 35.9492H38.7812C38.1516 35.9492 37.6406 36.4602 37.6406 37.0898V38.2304H34.2188C33.5891 38.2304 33.0781 38.7403 33.0781 39.371V42.7929H28.5156V39.3676C32.8432 37.5575 36.1236 33.749 37.2266 29.1054H38.7812C40.6678 29.1054 42.2031 27.5701 42.2031 25.6836V23.4023C42.2031 21.6663 40.9028 20.2268 39.225 20.0089L41.8689 17.365C42.0834 17.1517 42.2031 16.8608 42.2031 16.5586V11.996C42.2031 11.6938 42.0834 11.4029 41.8689 11.1896L37.6406 6.96138V5.15235C37.6406 4.72005 37.3965 4.3254 37.0099 4.13149L32.4474 1.85024C32.29 1.77154 32.1143 1.73047 31.9375 1.73047H19.3906C19.0884 1.73047 18.7975 1.85024 18.5842 2.06468L17.1094 3.53951L15.6345 2.06468C15.4212 1.85024 15.1304 1.73047 14.8281 1.73047H10.2656C9.96336 1.73047 9.6725 1.85024 9.4592 2.06468L7.17795 4.34593C6.96352 4.55922 6.84375 4.85008 6.84375 5.15235V6.96138L3.75608 10.049C3.54164 10.2623 3.42189 10.5532 3.42189 10.8554V16.5586C3.42189 16.8608 3.54164 17.1517 3.75608 17.365L6.40005 20.0089C4.72219 20.2268 3.42189 21.6663 3.42189 23.4023V25.6836C3.42189 27.5701 4.95716 29.1054 6.84375 29.1054H8.39843C9.50142 33.749 12.7818 37.5575 17.1094 39.3676V42.7929H10.0706C7.68553 42.7929 5.44306 43.7214 3.75608 45.4084C2.06909 47.0942 1.14062 49.3356 1.14062 51.7217V66.746C1.14062 67.3768 1.65163 67.8867 2.28126 67.8867H33.0781V69.0274C33.0781 69.6581 33.5891 70.168 34.2188 70.168H49.2567C49.729 71.4923 50.9837 72.4492 52.4688 72.4492C53.9538 72.4492 55.2085 71.4923 55.6808 70.168H70.7188C71.3484 70.168 71.8594 69.6581 71.8594 69.0274V39.371C71.8594 38.7403 71.3484 38.2304 70.7188 38.2304ZM39.9219 61.0429H51.3281V63.3242H39.9219V61.0429ZM53.6094 63.3242V61.0429H65.0156V63.3242H53.6094ZM65.0156 58.7617H53.6094V38.2304H65.0156V58.7617ZM51.3281 38.2304V58.7617H39.9219V38.2304H51.3281ZM39.9219 23.4023V25.6836C39.9219 26.312 39.4097 26.8242 38.7812 26.8242H37.5825C37.6121 26.4466 37.6406 26.0691 37.6406 25.6836V22.2617H38.7812C39.4097 22.2617 39.9219 22.7738 39.9219 23.4023ZM5.70312 16.0863V11.3276L8.7908 8.24002C9.00523 8.02672 9.125 7.73587 9.125 7.4336V5.62457L10.7378 4.01173H14.3559L16.303 5.95877C16.7489 6.40476 17.4698 6.40476 17.9158 5.95877L19.8628 4.01173H31.6683L35.3594 5.85726V7.4336C35.3594 7.73587 35.4791 8.02672 35.6936 8.24002L39.9219 12.4683V16.0863L37.6406 18.3676V17.6992C37.6406 17.0695 37.1296 16.5586 36.5 16.5586H33.3553C30.5391 16.5586 27.8917 15.4624 25.9002 13.4709C25.4542 13.0249 24.7333 13.0249 24.2873 13.4709C22.2958 15.4624 19.6484 16.5586 16.8322 16.5586H9.125C8.49538 16.5586 7.98438 17.0695 7.98438 17.6992V18.3676L5.70312 16.0863ZM6.84375 26.8242C6.21527 26.8242 5.70312 26.312 5.70312 25.6836V23.4023C5.70312 22.7738 6.21527 22.2617 6.84375 22.2617H7.98438V25.6836C7.98438 26.0691 8.01289 26.4466 8.04255 26.8242H6.84375ZM10.2656 25.6836V18.8398H16.8322C19.8902 18.8398 22.784 17.7767 25.0938 15.8251C27.4024 17.7767 30.2973 18.8398 33.3553 18.8398H35.3594V25.6836C35.3594 32.6014 29.7304 38.2304 22.8125 38.2304C15.8946 38.2304 10.2656 32.6014 10.2656 25.6836ZM22.8125 40.5117C23.9919 40.5117 25.1337 40.3588 26.2344 40.0976V43.4613L22.8125 46.8832L19.3906 43.4613V40.0976C20.4913 40.3588 21.6331 40.5117 22.8125 40.5117ZM17.7778 45.0742L22.0061 49.3025C22.2285 49.5249 22.5205 49.6367 22.8125 49.6367C23.1045 49.6367 23.3965 49.5249 23.6189 49.3025L27.8472 45.0742H32.6059L22.7144 54.9657L12.824 45.0742H17.7778ZM10.2656 65.6054V57.621H7.98438V65.6054H3.42189V51.7217C3.42189 49.9458 4.1131 48.2759 5.36893 47.0212C6.51754 45.8726 8.01404 45.2031 9.62004 45.0958L21.908 57.3849C22.1224 57.5994 22.4121 57.7191 22.7144 57.7191C23.0167 57.7191 23.3075 57.5994 23.5208 57.3849L33.0781 47.8276V65.6054H10.2656ZM35.3594 40.5117H37.6406V64.4648C37.6406 65.0956 38.1516 65.6054 38.7812 65.6054H49.0469V67.8867H35.3594V40.5117ZM52.4688 70.168C51.8403 70.168 51.3281 69.657 51.3281 69.0274V65.6054H53.6094V69.0274C53.6094 69.657 53.0972 70.168 52.4688 70.168ZM69.5781 67.8867H55.8906V65.6054H66.1562C66.7859 65.6054 67.2969 65.0956 67.2969 64.4648V40.5117H69.5781V67.8867Z" fill="#005BBB"/>
  <path d="M42.2031 54.1992H49.0469V56.4804H42.2031V54.1992Z" fill="#005BBB"/>
  <path d="M42.2031 49.6367H49.0469V51.9179H42.2031V49.6367Z" fill="#005BBB"/>
  <path d="M42.2031 45.0742H49.0469V47.3554H42.2031V45.0742Z" fill="#005BBB"/>
  <path d="M42.2031 40.5117H49.0469V42.7929H42.2031V40.5117Z" fill="#005BBB"/>
  <path d="M55.8906 49.6367H62.7344V51.9179H55.8906V49.6367Z" fill="#005BBB"/>
  <path d="M55.8906 45.0742H62.7344V47.3554H55.8906V45.0742Z" fill="#005BBB"/>
  <path d="M55.8906 40.5117H62.7344V42.7929H55.8906V40.5117Z" fill="#005BBB"/>
  <path d="M55.8906 54.1992H62.7344V56.4804H55.8906V54.1992Z" fill="#005BBB"/>
  <path d="M14.8281 21.1211H17.1094V25.6837H14.8281V21.1211Z" fill="#005BBB"/>
  <path d="M28.5156 21.1211H30.7969V25.6837H28.5156V21.1211Z" fill="#005BBB"/>
  <path d="M27.375 31.3867H25.0938C25.0938 32.6448 24.0706 33.6679 22.8125 33.6679C21.5544 33.6679 20.5312 32.6448 20.5312 31.3867H18.25C18.25 33.9029 20.2963 35.9492 22.8125 35.9492C25.3287 35.9492 27.375 33.9029 27.375 31.3867Z" fill="#005BBB"/>
  <path d="M61.2333 29.0473C63.0378 29.6484 64.4727 31.0844 65.0738 32.8877C65.2289 33.3543 65.6646 33.6679 66.1562 33.6679C66.6479 33.6679 67.0824 33.3543 67.2387 32.8877C67.8398 31.0833 69.2759 29.6484 71.0792 29.0473C71.5457 28.891 71.8594 28.4564 71.8594 27.9648C71.8594 27.4732 71.5457 27.0386 71.0792 26.8823C69.2747 26.2812 67.8398 24.8452 67.2387 23.0419C67.0824 22.5753 66.6479 22.2617 66.1562 22.2617C65.6646 22.2617 65.2289 22.5753 65.0738 23.0419C64.4727 24.8463 63.0366 26.2812 61.2333 26.8823C60.7668 27.0386 60.4531 27.4732 60.4531 27.9648C60.4531 28.4564 60.7668 28.891 61.2333 29.0473ZM66.1562 25.9071C66.7174 26.7067 67.4144 27.4036 68.2139 27.9648C67.4144 28.526 66.7174 29.2229 66.1562 30.0225C65.5951 29.2229 64.8981 28.526 64.0986 27.9648C64.8981 27.4036 65.5951 26.7067 66.1562 25.9071Z" fill="#005BBB"/>
  <path d="M45.2646 8.51605C47.069 9.11716 48.5039 10.5532 49.105 12.3565C49.2602 12.823 49.6959 13.1367 50.1875 13.1367C50.6791 13.1367 51.1137 12.823 51.27 12.3565C51.8711 10.5521 53.3071 9.11716 55.1104 8.51605C55.577 8.35979 55.8906 7.92521 55.8906 7.4336C55.8906 6.94199 55.577 6.50741 55.1104 6.35115C53.306 5.75004 51.8711 4.31399 51.27 2.51066C51.1137 2.04415 50.6791 1.73047 50.1875 1.73047C49.6959 1.73047 49.2602 2.04415 49.105 2.51066C48.5039 4.31513 47.0679 5.75004 45.2646 6.35115C44.798 6.50741 44.4844 6.94199 44.4844 7.4336C44.4844 7.92521 44.798 8.35979 45.2646 8.51605ZM50.1875 5.37591C50.7487 6.17549 51.4456 6.87241 52.2452 7.4336C51.4456 7.99479 50.7487 8.69171 50.1875 9.49129C49.6263 8.69171 48.9294 7.99479 48.1298 7.4336C48.9294 6.87241 49.6263 6.17549 50.1875 5.37591Z" fill="#005BBB"/>
</svg>