<svg xmlns="http://www.w3.org/2000/svg" width="80" height="80" viewBox="0 0 80 80" fill="none">
  <path d="M13.8028 51.8818L1.45899 76.5693C1.26766 76.9519 1.28865 77.4062 1.5133 77.7703C1.73796 78.1345 2.13543 78.3554 2.56376 78.3554H76.6263C77.0632 78.3554 77.4669 78.1246 77.6891 77.7493C77.9113 77.3741 77.9187 76.9087 77.7076 76.5273L64.1295 51.8398C63.9134 51.4436 63.4987 51.1992 63.0482 51.1992H39.595H14.9075C14.4397 51.1992 14.0126 51.4633 13.8028 51.8818ZM11.0489 62.9122L14.4236 56.1626L20.5684 62.3086L15.0606 67.8163L11.0489 62.9122ZM9.83916 65.3315L18.4749 75.8867H4.56098L9.83916 65.3315ZM58.834 67.246L54.4075 71.6725L38.2545 55.5195L40.1061 53.6679H45.2559L58.834 67.246ZM60.5794 68.9915L67.4746 75.8867H53.6842L60.5794 68.9915ZM36.5091 57.2649L52.6621 73.4179L50.1934 75.8867H21.6645L19.9648 73.8092L36.5091 57.2649ZM70.9654 75.8867L58.6217 63.5429L64.5109 57.6537L74.5389 75.8867H70.9654ZM63.2716 55.4022L56.8763 61.7975L48.7467 53.6679H62.3186L63.2716 55.4022ZM36.6152 53.6679L18.3934 71.8898L16.6319 69.7358L23.1865 63.1813C23.6691 62.6986 23.6691 61.9185 23.1865 61.4358L15.5864 53.8358L15.6704 53.6679H36.6152Z" fill="#005BBB"/>
  <path d="M40.622 50.6499L46.1471 42.3635C47.5135 40.3132 48.2356 37.9272 48.2356 35.4621V35.1523C48.2356 32.7946 47.3037 30.5925 45.6126 28.9508C44.2869 27.6633 42.6217 26.861 40.8294 26.6055V19.1054H61.8137C62.3124 19.1054 62.763 18.8042 62.9543 18.3438C63.1456 17.8822 63.0395 17.3514 62.6865 16.9983L56.1529 10.4648L62.6865 3.93129C63.0395 3.57826 63.1456 3.04748 62.9543 2.58582C62.763 2.1254 62.3124 1.82422 61.8137 1.82422H39.595C38.9136 1.82422 38.3606 2.37722 38.3606 3.05859V17.871V26.608C34.1983 27.2338 30.9544 31.0085 30.9544 35.4621C30.9544 37.9272 31.6765 40.3132 33.0429 42.3623L38.568 50.6486C38.7976 50.993 39.1827 51.1992 39.595 51.1992C40.0073 51.1992 40.3924 50.993 40.622 50.6499ZM40.8294 4.29296H58.834L53.5348 9.59214C53.0522 10.0748 53.0522 10.8549 53.5348 11.3375L58.834 16.6367H40.8294V4.29296ZM35.0969 40.9934C34.002 39.3504 33.4231 37.4384 33.4231 35.4621C33.4231 31.9886 36.1067 29.0816 39.4037 28.9829C39.4679 28.9817 39.532 28.9804 39.5962 28.9804C41.212 28.9804 42.7315 29.5951 43.8931 30.7234C45.1015 31.896 45.7669 33.4686 45.7669 35.1523V35.4621C45.7669 37.4384 45.188 39.3504 44.0931 40.9934L39.595 47.7392L35.0969 40.9934Z" fill="#005BBB"/>
  <path d="M39.595 31.4492C37.5533 31.4492 35.8919 33.1106 35.8919 35.1523C35.8919 37.194 37.5533 38.8554 39.595 38.8554C41.6367 38.8554 43.2981 37.194 43.2981 35.1523C43.2981 33.1106 41.6367 31.4492 39.595 31.4492ZM39.595 36.3867C38.9149 36.3867 38.3606 35.8324 38.3606 35.1523C38.3606 34.4722 38.9149 33.9179 39.595 33.9179C40.2751 33.9179 40.8294 34.4722 40.8294 35.1523C40.8294 35.8324 40.2751 36.3867 39.595 36.3867Z" fill="#005BBB"/>
</svg>