<svg xmlns="http://www.w3.org/2000/svg" width="67" height="68" viewBox="0 0 67 68" fill="none">
  <path d="M64.8387 7.07371H65.9194C66.5159 7.07371 67 6.59066 67 5.99307V1.67049C67 1.07289 66.5159 0.589844 65.9194 0.589844H1.08065C0.484129 0.589844 0 1.07289 0 1.67049V5.99307C0 6.59066 0.484129 7.07371 1.08065 7.07371H2.16129V37.3317H1.08065C0.484129 37.3317 0 37.8148 0 38.4124V42.735C0 43.3326 0.484129 43.8156 1.08065 43.8156H6.48387V66.5092C6.48387 67.1068 6.968 67.5898 7.56452 67.5898H11.8871C12.4836 67.5898 12.9677 67.1068 12.9677 66.5092V61.1059H18.9783L19.4559 66.6032C19.5046 67.1619 19.9714 67.5898 20.5323 67.5898H27.0161C27.577 67.5898 28.0438 67.1619 28.0925 66.6032L28.5701 61.1059H54.0323V66.5092C54.0323 67.1068 54.5164 67.5898 55.1129 67.5898H59.4355C60.032 67.5898 60.5161 67.1068 60.5161 66.5092V43.8156H65.9194C66.5159 43.8156 67 43.3326 67 42.735V38.4124C67 37.8148 66.5159 37.3317 65.9194 37.3317H64.8387V16.7995V7.07371ZM57.2742 11.3963C55.4868 11.3963 54.0323 12.8508 54.0323 14.6382V26.5253C54.0323 27.1218 53.5471 27.6059 52.9516 27.6059C52.3562 27.6059 51.871 27.1218 51.871 26.5253V12.478C51.871 10.6906 50.4164 9.235 48.629 9.235C46.8416 9.235 45.3871 10.6895 45.3871 12.4758V17.8801C45.3871 18.4766 44.9019 18.9608 44.3065 18.9608C43.711 18.9608 43.2258 18.4766 43.2258 17.8801V14.6382C43.2258 12.8508 41.7713 11.3963 39.9839 11.3963C38.1965 11.3963 36.7419 12.8508 36.7419 14.6382V22.2027C36.7419 22.7992 36.2567 23.2834 35.6613 23.2834C35.0659 23.2834 34.5806 22.7992 34.5806 22.2027V15.7188C34.5806 13.9314 33.1261 12.4769 31.3387 12.4769C30.7433 12.4769 30.2581 11.9928 30.2581 11.3963V7.07371H62.6774V16.7995C62.6774 17.396 62.1922 17.8801 61.5968 17.8801C61.0013 17.8801 60.5161 17.396 60.5161 16.7995V14.6382C60.5161 12.8508 59.0616 11.3963 57.2742 11.3963ZM2.16129 2.75113H64.8387V4.91242H2.16129V2.75113ZM2.16129 39.493H18.2435L17.4049 41.1713C17.3303 41.3215 17.3001 41.4868 17.3001 41.6543H2.16129V39.493ZM25.6189 26.656L27.966 29.0032C28.7354 29.7737 29.1774 30.8392 29.1774 31.9285C29.1774 33.0178 28.7354 34.0833 27.966 34.8538L26.5687 36.2511H24.8548V31.9285H22.6936V36.2511H21.0067C19.31 34.4226 18.371 32.0647 18.371 29.5565V28.6931C18.371 26.8603 19.0356 25.0913 20.2426 23.7124L23.7742 19.6762V22.2027C23.7742 23.8604 24.4464 25.4835 25.6189 26.656ZM54.0323 43.8156V54.6221H29.1342L30.0744 43.8156H54.0323ZM12.9677 43.8156H17.474L18.4142 54.6221H12.9677V43.8156ZM21.2001 38.4124H26.3483L27.4289 40.5737H20.1195L21.2001 38.4124ZM19.55 42.735H27.9995L27.8115 44.8963H19.738L19.55 42.735ZM8.64516 65.4285V43.8156H10.8065V65.4285H8.64516ZM12.9677 58.9446V56.7834H18.6022L18.7903 58.9446H12.9677ZM26.0252 65.4285H21.5232L19.9249 47.0575H27.6224L26.0252 65.4285ZM28.7581 58.9446L28.9462 56.7834H54.0323V58.9446H28.7581ZM58.3548 65.4285H56.1936V43.8156H58.3548V65.4285ZM64.8387 41.6543H30.2494C30.2494 41.4868 30.2192 41.3215 30.1446 41.1713L29.3049 39.493H64.8387V41.6543ZM28.5442 37.3317L29.494 36.3818C30.6665 35.2093 31.3387 33.5862 31.3387 31.9285C31.3387 30.2708 30.6665 28.6477 29.494 27.4752L27.1469 25.128C26.3775 24.3575 25.9355 23.292 25.9355 22.2027V16.7995C25.9355 16.3488 25.6567 15.9458 25.2352 15.7869C24.8149 15.6302 24.3383 15.748 24.0422 16.0873L18.6163 22.2881C17.0645 24.0614 16.2097 26.3362 16.2097 28.6931V29.5565C16.2097 32.4289 17.2168 35.1424 19.0745 37.3317H4.32258V7.07371H28.0968V11.3963C28.0968 13.1836 29.5513 14.6382 31.3387 14.6382C31.9341 14.6382 32.4194 15.1223 32.4194 15.7188V22.2027C32.4194 23.9901 33.8739 25.4446 35.6613 25.4446C37.4487 25.4446 38.9032 23.9901 38.9032 22.2027V14.6382C38.9032 14.0417 39.3884 13.5575 39.9839 13.5575C40.5793 13.5575 41.0645 14.0417 41.0645 14.6382V17.8801C41.0645 19.6675 42.5191 21.1221 44.3065 21.1221C46.0938 21.1221 47.5484 19.6675 47.5484 17.8801V12.4758C47.5484 11.8804 48.0336 11.3963 48.629 11.3963C49.2245 11.3963 49.7097 11.8815 49.7097 12.478V26.5253C49.7097 28.3127 51.1642 29.7672 52.9516 29.7672C54.739 29.7672 56.1936 28.3127 56.1936 26.5253V14.6382C56.1936 14.0417 56.6788 13.5575 57.2742 13.5575C57.8696 13.5575 58.3548 14.0417 58.3548 14.6382V16.7995C58.3548 18.5869 59.8094 20.0414 61.5968 20.0414C61.9772 20.0414 62.3381 19.9636 62.6774 19.8426V37.3317H28.5442Z" fill="#005BBB"/>
</svg>