<svg xmlns="http://www.w3.org/2000/svg" width="71" height="70" viewBox="0 0 71 70" fill="none">
  <path d="M56.875 40.7148C55.2955 40.7148 53.7846 41.0017 52.375 41.5023V1.33984C52.375 0.717724 51.871 0.214844 51.25 0.214844H1.75C1.129 0.214844 0.625 0.717724 0.625 1.33984V68.8398C0.625 69.4619 1.129 69.9648 1.75 69.9648H51.25C51.871 69.9648 52.375 69.4619 52.375 68.8398V66.9273C53.7846 67.4279 55.2955 67.7148 56.875 67.7148C64.3191 67.7148 70.375 61.6589 70.375 54.2148C70.375 46.7707 64.3191 40.7148 56.875 40.7148ZM67.4658 56.4648L65.875 54.874V53.5556L67.4658 51.9648H67.8978C68.0462 52.6915 68.125 53.4442 68.125 54.2148C68.125 54.9854 68.0462 55.7381 67.8978 56.4648H67.4658ZM67.1789 49.7148H67C66.7019 49.7148 66.415 49.8329 66.2046 50.0444L63.9546 52.2944C63.7431 52.5048 63.625 52.7905 63.625 53.0898H61.375C61.375 52.7905 61.2569 52.5048 61.0454 52.2944L58.7954 50.0444C58.585 49.8329 58.2981 49.7148 58 49.7148V47.4648C58.2981 47.4648 58.585 47.3467 58.7954 47.1352L61.0454 44.8852C61.2569 44.6748 61.375 44.3891 61.375 44.0898V43.9109C63.9636 45.046 66.0437 47.1262 67.1789 49.7148ZM55.75 60.9648C55.4519 60.9648 55.165 61.0829 54.9546 61.2944L52.7046 63.5444C52.4931 63.7548 52.375 64.0405 52.375 64.3398V64.5187C49.7864 63.3836 47.7062 61.3034 46.5711 58.7148H46.75C47.0481 58.7148 47.335 58.5967 47.5454 58.3852L49.7954 56.1352C50.0069 55.9248 50.125 55.6391 50.125 55.3398H52.375C52.375 55.6391 52.4931 55.9248 52.7046 56.1352L54.9546 58.3852C55.165 58.5967 55.4519 58.7148 55.75 58.7148V60.9648ZM52.375 43.9109V44.0898C52.375 44.3891 52.4931 44.6748 52.7046 44.8852L54.9546 47.1352C55.165 47.3467 55.4519 47.4648 55.75 47.4648V49.7148C55.4519 49.7148 55.165 49.8329 54.9546 50.0444L52.7046 52.2944C52.4931 52.5048 52.375 52.7905 52.375 53.0898H50.125C50.125 52.7905 50.0069 52.5048 49.7954 52.2944L47.5454 50.0444C47.335 49.8329 47.0481 49.7148 46.75 49.7148H46.5711C47.7062 47.1262 49.7864 45.046 52.375 43.9109ZM45.625 54.2148C45.625 53.4442 45.7038 52.6915 45.8522 51.9648H46.2842L47.875 53.5556V54.874L46.2842 56.4648H45.8522C45.7038 55.7381 45.625 54.9854 45.625 54.2148ZM57.5342 56.4648H56.2158L54.625 54.874V53.5556L56.2158 51.9648H57.5342L59.125 53.5556V54.874L57.5342 56.4648ZM59.125 43.192V43.624L57.5342 45.2148H56.2158L54.625 43.624V43.192C55.3517 43.0436 56.1044 42.9648 56.875 42.9648C57.6456 42.9648 58.3983 43.0436 59.125 43.192ZM43.375 54.2148C43.375 58.2311 45.1469 61.8322 47.9391 64.3072C46.822 65.1284 46.0367 66.3423 45.7533 67.7148H38.875V59.8398C38.875 59.2177 38.371 58.7148 37.75 58.7148H34.285C33.736 54.9056 30.4589 51.9648 26.5 51.9648C22.5411 51.9648 19.264 54.9056 18.715 58.7148H15.25C14.629 58.7148 14.125 59.2177 14.125 59.8398V67.7148H7.26138C6.8125 65.5143 5.0755 63.7773 2.875 63.3284V36.2148H16.4414C17.0039 41.2694 21.298 45.2148 26.5 45.2148C31.702 45.2148 35.9973 41.2694 36.5586 36.2148H50.125V42.5418C46.0964 44.8795 43.375 49.2311 43.375 54.2148ZM36.625 60.9648V67.7148H16.375V60.9648H36.625ZM20.9886 58.7148C21.5117 56.1509 23.7831 54.2148 26.5 54.2148C29.2169 54.2148 31.4883 56.1509 32.0114 58.7148H20.9886ZM7.26138 2.46484H14.125V10.3398C14.125 10.9619 14.629 11.4648 15.25 11.4648H18.715C19.264 15.274 22.5411 18.2148 26.5 18.2148C30.4589 18.2148 33.736 15.274 34.285 11.4648H37.75C38.371 11.4648 38.875 10.9619 38.875 10.3398V2.46484H45.7386C46.1875 4.66534 47.9245 6.40234 50.125 6.85122V33.9648H36.5586C35.9961 28.9102 31.702 24.9648 26.5 24.9648C21.298 24.9648 17.0028 28.9102 16.4414 33.9648H2.875V6.85122C5.0755 6.40234 6.8125 4.66534 7.26138 2.46484ZM16.375 9.21484V2.46484H36.625V9.21484H16.375ZM32.0114 11.4648C31.4883 14.0287 29.2169 15.9648 26.5 15.9648C23.7831 15.9648 21.5117 14.0287 20.9886 11.4648H32.0114ZM18.715 33.9648C19.264 30.1556 22.5411 27.2148 26.5 27.2148C30.4589 27.2148 33.736 30.1556 34.285 33.9648H18.715ZM34.285 36.2148C33.736 40.024 30.4589 42.9648 26.5 42.9648C22.5411 42.9648 19.264 40.024 18.715 36.2148H34.285ZM50.125 4.50784C49.1721 4.16809 48.4217 3.41771 48.082 2.46484H50.125V4.50784ZM4.918 2.46484C4.57825 3.41771 3.82787 4.16809 2.875 4.50784V2.46484H4.918ZM2.875 65.6718C3.82787 66.0115 4.57825 66.7619 4.918 67.7148H2.875V65.6718ZM50.125 67.7148H48.073C48.3835 66.8452 49.0427 66.1297 49.9011 65.7528C49.9754 65.7978 50.0485 65.845 50.1239 65.8889V67.7148H50.125ZM54.625 65.2376V64.8056L56.2158 63.2148H57.5342L59.125 64.8056V65.2376C58.3983 65.386 57.6456 65.4648 56.875 65.4648C56.1044 65.4648 55.3517 65.386 54.625 65.2376ZM61.375 64.5187V64.3398C61.375 64.0405 61.2569 63.7548 61.0454 63.5444L58.7954 61.2944C58.585 61.0829 58.2981 60.9648 58 60.9648V58.7148C58.2981 58.7148 58.585 58.5967 58.7954 58.3852L61.0454 56.1352C61.2569 55.9248 61.375 55.6391 61.375 55.3398H63.625C63.625 55.6391 63.7431 55.9248 63.9546 56.1352L66.2046 58.3852C66.415 58.5967 66.7019 58.7148 67 58.7148H67.1789C66.0437 61.3034 63.9636 63.3836 61.375 64.5187Z" fill="#005BBB"/>
</svg>